<svg width="60" height="60" viewBox="0 0 60 60" fill="none" xmlns="http://www.w3.org/2000/svg">
<circle cx="30" cy="30" r="30" fill="#F6F158"/>
<path d="M23.047 20.195V18.3356C23.047 17.7054 23.2694 17.1658 23.7141 16.7168C24.1589 16.2679 24.6977 16.0435 25.3303 16.0435H33.5969C34.2296 16.0435 34.7683 16.2679 35.2131 16.7168C35.6579 17.1658 35.8803 17.7054 35.8803 18.3356V20.195H38.2136C38.6861 20.195 39.125 20.3114 39.5301 20.5442C39.9353 20.7768 40.2317 21.1172 40.4194 21.5654L43.9748 29.9975C44.1138 30.2814 44.2045 30.5723 44.2467 30.8703C44.289 31.1683 44.3102 31.4663 44.3102 31.7643V38.9006C44.3102 39.5897 44.0676 40.176 43.5825 40.6594C43.0973 41.1428 42.509 41.3846 41.8175 41.3846H17.1826C16.4936 41.3846 15.9073 41.1428 15.4239 40.6594C14.9404 40.176 14.6987 39.5897 14.6987 38.9006V31.7643C14.6987 31.4663 14.7199 31.1683 14.7622 30.8703C14.8045 30.5723 14.8922 30.2814 15.0254 29.9975L18.5079 21.5654C18.6955 21.1172 18.9919 20.7768 19.3971 20.5442C19.8023 20.3114 20.2411 20.195 20.7136 20.195H23.047ZM25.3303 20.195H33.5969V18.3356H25.3303V20.195ZM22.4326 29.9009V29.2811C22.4326 28.9712 22.5381 28.7114 22.7491 28.5016C22.9598 28.2921 23.2211 28.1874 23.5329 28.1874C23.8445 28.1874 24.1044 28.2921 24.3124 28.5016C24.5205 28.7114 24.6245 28.9712 24.6245 29.2811V29.9009H34.3757V29.2811C34.3757 28.9712 34.4819 28.7114 34.6943 28.5016C34.9065 28.2921 35.1684 28.1874 35.48 28.1874C35.7918 28.1874 36.051 28.2921 36.2576 28.5016C36.4642 28.7114 36.5675 28.9712 36.5675 29.2811V29.9009H41.1977L38.1896 22.6876H20.811L17.8024 29.9009H22.4326ZM22.4326 32.0884H17.1826V38.9006H41.8175V32.0884H36.5675V32.7082C36.5675 33.0181 36.462 33.2778 36.2511 33.4873C36.0403 33.6971 35.7791 33.8019 35.4672 33.8019C35.1556 33.8019 34.8958 33.6971 34.6877 33.4873C34.4797 33.2778 34.3757 33.0181 34.3757 32.7082V32.0884H24.6245V32.7082C24.6245 33.0181 24.5183 33.2778 24.3059 33.4873C24.0937 33.6971 23.8318 33.8019 23.5202 33.8019C23.2083 33.8019 22.9491 33.6971 22.7425 33.4873C22.5359 33.2778 22.4326 33.0181 22.4326 32.7082V32.0884Z" fill="black"/>
</svg>
